<?xml version="1.0" encoding="utf-8"?>
<!-- Generator: Adobe Illustrator 19.2.0, SVG Export Plug-In . SVG Version: 6.00 Build 0)  -->
<!DOCTYPE svg PUBLIC "-//W3C//DTD SVG 1.1//EN" "http://www.w3.org/Graphics/SVG/1.1/DTD/svg11.dtd">
<svg version="1.1" id="Layer_1" xmlns="http://www.w3.org/2000/svg" xmlns:xlink="http://www.w3.org/1999/xlink" x="0px" y="0px"
	 viewBox="0 0 106.5 18.6" style="enable-background:new 0 0 106.5 18.6;" xml:space="preserve">
<style type="text/css">
	.st0{fill:#231F20;}
</style>
<title>Wikipedia Playlist</title>
<path class="st0" d="M17.5,2.6c0-0.1,0.1-0.2,0.1-0.3c0-0.1,0-0.2,0-0.2c0-0.1-0.1-0.1-0.2-0.2l-0.2-0.1c-0.1,0-0.2-0.1-0.3-0.1
	l-0.3,0h-0.3c-0.1-0.1-0.1-0.2-0.1-0.3c0-0.1,0-0.2,0.1-0.3h2.1h1.7c0.1,0.1,0.1,0.2,0.1,0.3c0,0.1,0,0.2-0.1,0.3
	c-0.4,0-0.8,0.1-1.1,0.3c-0.3,0.2-0.5,0.5-0.6,0.8l-3.9,10.4c0,0.2-0.2,0.4-0.4,0.5c-0.2-0.1-0.4-0.3-0.4-0.5l-2.3-6.5
	c0-0.2-0.1-0.4-0.3-0.5c-0.2,0.1-0.3,0.3-0.3,0.5l-2.9,6.5c-0.1,0.3-0.3,0.5-0.5,0.5C7.2,13.7,7,13.4,7,13.2L3.4,2.8
	C3.3,2.4,3.1,2.1,2.9,1.8C2.6,1.7,2.3,1.6,2,1.6C1.9,1.5,1.9,1.4,1.9,1.3c0-0.1,0-0.2,0.1-0.3h1.8C4.5,1,5.2,1,6,1
	c0.1,0.1,0.1,0.2,0.1,0.3c0,0.1,0,0.2-0.1,0.3c-0.3,0-0.6,0.1-0.8,0.2C5,2,4.9,2.2,5.1,2.4L7.9,11H8l2.5-5.7
	c0.1-0.2,0.2-0.4,0.2-0.7c0-0.2-0.1-0.4-0.1-0.6l-0.4-1.3C9.8,2.1,9.2,1.6,8.5,1.6C8.4,1.5,8.4,1.4,8.4,1.3c0-0.1,0-0.2,0.1-0.3h1.9
	h2.4c0.1,0.1,0.1,0.2,0.1,0.3c0,0.1,0,0.2-0.1,0.3h-0.4c-0.1,0-0.2,0.1-0.3,0.1c-0.1,0-0.2,0.1-0.3,0.2l-0.1,0.3
	c0,0.2,0,0.4,0.1,0.5l2.6,8.2h0.1L17.5,2.6z"/>
<path class="st0" d="M23.6,11.1c-0.1,0.5,0,1,0.2,1.4c0.3,0.2,0.7,0.4,1.2,0.3c0.1,0.1,0.1,0.2,0.1,0.3c0,0.1,0,0.2-0.1,0.3
	c-0.8,0-1.6,0-2.1,0c-0.6,0-1.3,0-2.2,0c-0.1-0.1-0.1-0.2-0.1-0.3c0-0.1,0-0.2,0.1-0.3c0.4,0,0.8-0.1,1.2-0.3
	c0.2-0.4,0.3-0.9,0.2-1.4V7.4c0-0.4,0-0.7-0.2-1c-0.3-0.2-0.7-0.3-1-0.3c-0.1-0.2-0.1-0.4,0-0.6c0.9-0.1,1.8-0.3,2.6-0.6
	c0.2,0,0.3,0,0.3,0.1c-0.1,0.8-0.1,1.6-0.1,2.2L23.6,11.1L23.6,11.1z M21.8,1.9c0-0.3,0.1-0.5,0.3-0.6C22.3,1.1,22.5,1,22.8,1
	c0.3,0,0.5,0.1,0.6,0.3c0.2,0.2,0.3,0.4,0.3,0.7c0,0.2-0.1,0.5-0.3,0.6c-0.2,0.2-0.4,0.3-0.7,0.3c-0.2,0-0.5-0.1-0.6-0.3
	C21.9,2.4,21.8,2.2,21.8,1.9z"/>
<path class="st0" d="M27.1,11.1V2.7c0-0.4,0-0.7,0-1c0-0.2-0.1-0.3-0.2-0.5c-0.1-0.1-0.2-0.1-0.4-0.1h-0.6c-0.2-0.2-0.2-0.4-0.1-0.6
	c0.9,0,1.8-0.2,2.7-0.5c0.1,0,0.2,0,0.2,0.1c0,0,0,0,0,0.1c-0.1,0.5-0.1,1.2-0.1,2V9C29.1,9,29.6,8.7,30,8.4c0.6-0.5,1.1-1,1.5-1.6
	c0.1-0.1,0.1-0.2,0.2-0.2c0-0.1,0.1-0.2,0.1-0.3c0-0.1,0-0.3-0.1-0.3c-0.2-0.1-0.3-0.2-0.5-0.2C31.1,5.7,31,5.6,31,5.5
	c0-0.1,0-0.2,0.1-0.3c0.6,0,1.2,0,1.9,0c0.5,0,1.1,0,1.7,0c0.1,0.1,0.1,0.2,0.1,0.3c0,0.1,0,0.2-0.1,0.3c-0.8,0-1.5,0.3-2,0.8
	l-1.8,1.7c-0.1,0.1-0.1,0.1-0.1,0.2c0,0.1,0.1,0.2,0.1,0.3l2.5,3.2c0.2,0.3,0.4,0.5,0.7,0.6c0.3,0.1,0.6,0.2,1,0.2
	c0.1,0.1,0.1,0.2,0.1,0.3c0,0.1,0,0.2-0.1,0.3c-0.5,0-1,0-1.6,0h-1.2c0,0-0.1,0-0.1-0.1c0,0,0,0,0,0c-0.2-0.5-0.5-1-0.8-1.4
	l-1.4-1.9c-0.2-0.2-0.4-0.5-0.6-0.6c-0.3-0.1-0.6-0.1-0.8-0.1v1.7c0,0.5,0,1,0.2,1.4c0.2,0.2,0.5,0.4,0.8,0.3
	c0.1,0.1,0.1,0.2,0.1,0.3c0,0.1,0,0.2-0.1,0.3c-0.6,0-1.2,0-1.8,0h-2.1c-0.1-0.1-0.1-0.2-0.1-0.3c0-0.1,0-0.2,0.1-0.3
	c0.4,0,0.8-0.1,1.1-0.3C27.1,12.1,27.2,11.6,27.1,11.1z"/>
<path class="st0" d="M39.1,11.1c-0.1,0.5,0,1,0.2,1.4c0.3,0.2,0.7,0.4,1.2,0.3c0.1,0.1,0.1,0.2,0.1,0.3c0,0.1,0,0.2-0.1,0.3
	c-0.8,0-1.6,0-2.1,0c-0.6,0-1.3,0-2.2,0c-0.1-0.1-0.1-0.2-0.1-0.3c0-0.1,0-0.2,0.1-0.3c0.4,0,0.8-0.1,1.2-0.3
	c0.2-0.4,0.3-0.9,0.2-1.4V7.4c0-0.4,0-0.7-0.2-1c-0.3-0.2-0.7-0.3-1-0.3c-0.1-0.2-0.1-0.4,0-0.6C37.1,5.4,38,5.2,38.9,5
	c0.2,0,0.3,0,0.3,0.1C39,5.9,39,6.6,39,7.3L39.1,11.1L39.1,11.1z M37.3,1.9c0-0.3,0.1-0.5,0.3-0.6C37.8,1.1,38,1,38.3,1
	c0.3,0,0.5,0.1,0.6,0.3c0.2,0.2,0.3,0.4,0.3,0.7c0,0.2-0.1,0.5-0.3,0.6c-0.2,0.2-0.4,0.3-0.7,0.3c-0.2,0-0.5-0.1-0.6-0.3
	C37.4,2.4,37.3,2.2,37.3,1.9z"/>
<path class="st0" d="M46.7,3.7c0.1-0.5,0-1-0.3-1.4C46,2,45.5,1.9,45,1.9c-0.1-0.1-0.1-0.2-0.1-0.3c0-0.1,0-0.2,0.1-0.3h2.5
	c0.3,0,0.7,0,1.4,0c0.6,0,1.1-0.1,1.3-0.1c0.7,0,1.5,0.1,2.2,0.3c0.5,0.2,1,0.5,1.4,0.9c0.2,0.3,0.4,0.6,0.6,1
	c0.1,0.3,0.2,0.6,0.2,1c0,0.5-0.1,0.9-0.2,1.3c-0.2,0.5-0.4,0.9-0.7,1.3c-0.4,0.4-0.9,0.8-1.4,1c-0.7,0.3-1.4,0.4-2.2,0.4
	c-0.5,0-1.1-0.1-1.6-0.2v3.3c-0.1,0.5,0.1,1,0.4,1.4c0.5,0.2,1,0.4,1.6,0.3c0.1,0.1,0.1,0.2,0.1,0.3c0,0.1,0,0.2-0.1,0.3h-2.8H45
	c-0.1-0.1-0.1-0.2-0.1-0.3c0-0.1,0-0.2,0.1-0.3c0.5,0,1-0.1,1.4-0.3c0.3-0.4,0.4-0.9,0.3-1.4L46.7,3.7L46.7,3.7z M48.3,3.1v4.5
	c0.5,0.1,1,0.1,1.5,0.1C50.6,7.7,51.4,7.5,52,7c0.5-0.6,0.8-1.4,0.7-2.2c0.1-0.8-0.2-1.7-0.7-2.3C51.4,2,50.7,1.8,50,1.8
	C48.9,1.8,48.3,2.2,48.3,3.1L48.3,3.1z"/>
<path class="st0" d="M57,11.4V3c0.1-0.4,0-0.9-0.2-1.3c-0.3-0.2-0.7-0.3-1.1-0.3c-0.2-0.2-0.2-0.4-0.1-0.6c0.9,0,1.8-0.2,2.7-0.5
	c0.1,0,0.2,0,0.2,0.1c0,0,0,0,0,0.1c-0.1,0.5-0.1,1.2-0.1,2v8.9c-0.1,0.5,0,1,0.2,1.4c0.3,0.2,0.7,0.4,1.1,0.3
	c0.1,0.1,0.1,0.2,0.1,0.3c0,0.1,0,0.2-0.1,0.3c-0.8,0-1.6,0-2.2,0h-2.2c-0.1-0.1-0.1-0.2-0.1-0.3c0-0.1,0-0.2,0.1-0.3
	c0.4,0,0.8-0.1,1.1-0.3C57,12.4,57.1,11.9,57,11.4z"/>
<path class="st0" d="M66.1,12.9L66.1,12.9l-0.4,0.3c-0.6,0.5-1.3,0.8-2.1,0.8c-1.6,0-2.4-0.7-2.4-2.1c0-0.7,0.3-1.3,0.9-1.7
	c0.7-0.5,1.4-0.9,2.3-1.1L66,8.7c0.1,0,0.1-0.1,0.1-0.2c0-1.7-0.5-2.5-1.6-2.5c-0.4,0-0.7,0.1-1.1,0.2C63.2,6.2,63,6.5,63,6.7
	c0,0.1,0,0.3,0,0.4c0,0.1,0.1,0.2,0.1,0.3c0,0.2-0.1,0.3-0.3,0.4c-0.2,0.2-0.4,0.2-0.6,0.2c-0.3,0-0.6-0.2-0.7-0.5
	c0-0.1,0-0.1,0-0.2c0-0.6,0.4-1.2,1-1.5c0.7-0.4,1.5-0.7,2.2-0.6c1.9,0,2.9,1.1,2.9,3.3v2.8c0,0.3,0,0.5,0,0.6c0,0.2,0,0.3,0.1,0.5
	c0,0.1,0.1,0.3,0.2,0.4c0.1,0.1,0.2,0.1,0.3,0.1c0.3,0,0.5-0.1,0.7-0.3c0.2,0.1,0.3,0.3,0.3,0.5c-0.5,0.5-1.2,0.7-1.8,0.7
	c-0.3,0-0.7-0.1-1-0.3C66.2,13.4,66.1,13.2,66.1,12.9z M66.1,9.3l-1.5,0.4c-1.1,0.1-1.9,1-1.8,2.1c0,0.4,0.1,0.7,0.4,1
	c0.3,0.3,0.6,0.5,1,0.4c0.6-0.1,1.2-0.4,1.7-0.9c0.2-0.1,0.3-0.3,0.3-0.5L66.1,9.3L66.1,9.3z"/>
<path class="st0" d="M73,16.9c-0.3,0.8-1,1.3-1.9,1.4c-0.2,0-0.5-0.1-0.6-0.2c-0.2-0.1-0.3-0.3-0.3-0.5c0-0.2,0.1-0.4,0.2-0.5
	c0.1-0.2,0.4-0.3,0.6-0.3h0.3h0.3c0.4,0,0.8-0.2,1-0.6c0.3-0.6,0.5-1.2,0.8-1.8c0.1-0.6,0-1.3-0.3-1.8l-2.2-5.1
	c-0.1-0.4-0.4-0.8-0.6-1.1c-0.3-0.2-0.6-0.3-0.9-0.3c-0.1-0.1-0.1-0.2-0.1-0.3c0-0.1,0-0.2,0.1-0.3c0.5,0,1,0,1.6,0h2.2
	c0.1,0.1,0.1,0.2,0.1,0.3c0,0.1,0,0.2-0.1,0.3c-0.3,0-0.7,0.1-0.8,0.4c0,0.3,0,0.6,0.2,0.9l1.7,4c0.2,0.4,0.3,0.4,0.5,0l1.9-4.4
	c0.2-0.2,0.1-0.5-0.1-0.6c0,0,0,0,0,0C76.3,6.1,76,6.1,75.7,6c-0.1-0.1-0.1-0.2-0.1-0.3c0-0.1,0-0.2,0.1-0.3h1.8c0.4,0,0.9,0,1.4,0
	c0.1,0.1,0.1,0.2,0.1,0.3c0,0.1,0,0.2-0.1,0.3c-0.3,0-0.7,0.1-1,0.3c-0.3,0.3-0.5,0.6-0.6,0.9c-0.9,2-2.1,4.7-3.4,7.9
	C73.6,15.7,73.3,16.3,73,16.9z"/>
<path class="st0" d="M80.7,11.4V3c0.1-0.4,0-0.9-0.2-1.3c-0.3-0.2-0.7-0.3-1.1-0.3c-0.2-0.2-0.2-0.4-0.1-0.6c0.9,0,1.8-0.2,2.7-0.5
	c0.1,0,0.2,0,0.2,0.1c0,0,0,0,0,0.1c-0.1,0.5-0.1,1.2-0.1,2v8.9c-0.1,0.5,0,1,0.2,1.4c0.3,0.2,0.7,0.4,1.1,0.3
	c0.1,0.1,0.1,0.2,0.1,0.3c0,0.1,0,0.2-0.1,0.3c-0.8,0-1.6,0-2.2,0h-2.2c-0.1-0.1-0.1-0.2-0.1-0.3c0-0.1,0-0.2,0.1-0.3
	c0.4,0,0.8-0.1,1.1-0.3C80.6,12.4,80.7,11.9,80.7,11.4z"/>
<path class="st0" d="M87.6,11.4c-0.1,0.5,0,1,0.2,1.4c0.3,0.2,0.7,0.4,1.2,0.3c0.1,0.1,0.1,0.2,0.1,0.3c0,0.1,0,0.2-0.1,0.3
	c-0.8,0-1.6,0-2.1,0c-0.6,0-1.3,0-2.2,0c-0.1-0.1-0.1-0.2-0.1-0.3c0-0.1,0-0.2,0.1-0.3c0.4,0,0.8-0.1,1.2-0.3
	c0.2-0.4,0.3-0.9,0.2-1.4V7.7c0-0.4,0-0.7-0.2-1c-0.3-0.2-0.7-0.3-1-0.3c-0.1-0.2-0.1-0.4,0-0.6c0.9-0.1,1.8-0.3,2.6-0.6
	c0.2,0,0.3,0,0.3,0.1c-0.1,0.8-0.1,1.6-0.1,2.2L87.6,11.4L87.6,11.4z M85.8,2.2c0-0.3,0.1-0.5,0.3-0.6c0.2-0.2,0.4-0.3,0.7-0.3
	c0.3,0,0.5,0.1,0.6,0.3c0.2,0.2,0.3,0.4,0.3,0.7c0,0.2-0.1,0.5-0.3,0.6c-0.2,0.2-0.4,0.3-0.7,0.3c-0.2,0-0.5-0.1-0.6-0.3
	C85.9,2.7,85.8,2.5,85.8,2.2z"/>
<path class="st0" d="M90.5,11.1c0.1-0.1,0.2-0.1,0.3-0.1c0.1,0,0.2,0,0.3,0.1c0.1,0.6,0.4,1.3,0.8,1.8c0.4,0.3,0.9,0.5,1.4,0.5
	c0.4,0,0.8-0.1,1.1-0.3c0.3-0.2,0.5-0.6,0.5-1c0-0.4-0.1-0.8-0.4-1c-0.5-0.4-1-0.7-1.6-0.9c-0.6-0.2-1.2-0.6-1.6-1
	c-0.3-0.5-0.5-1-0.5-1.6c0-0.6,0.3-1.2,0.8-1.5c0.6-0.4,1.2-0.6,1.9-0.6c0.3,0,0.6,0,0.9,0.1c0.3,0,0.6,0.1,1,0.2L96,5.7
	c0,0.7,0,1.4-0.1,2c-0.1,0.1-0.2,0.1-0.3,0.1c-0.1,0-0.2,0-0.3-0.1c0-0.3-0.2-0.7-0.3-1c-0.1-0.2-0.3-0.4-0.5-0.6
	C94.2,6.1,94,6,93.9,6c-0.1,0-0.3-0.1-0.4-0.1c-0.4,0-0.7,0.1-1,0.3c-0.3,0.2-0.4,0.5-0.4,0.9c0,0.4,0.1,0.8,0.4,1.1
	C93,8.5,93.5,8.8,94,9c1.5,0.6,2.3,1.4,2.3,2.6c0,0.4-0.1,0.8-0.3,1.2c-0.2,0.3-0.5,0.6-0.8,0.8c-0.6,0.3-1.3,0.5-1.9,0.5
	c-0.6,0-1.2-0.1-1.8-0.2c-0.1,0-0.3,0-0.4,0c-0.2,0-0.3,0-0.5,0.1C90.6,13.1,90.5,12.2,90.5,11.1z"/>
<path class="st0" d="M98.1,5.5H99c0-0.5,0-0.9,0-1.2c0-0.3,0-0.5,0-0.6s0-0.2,0-0.2c0-0.1,0-0.1,0-0.2C99.1,3.1,99.3,3,99.4,3
	c0.2-0.1,0.4-0.2,0.7-0.3c0.1-0.1,0.3-0.1,0.4-0.2c0.1,0,0.1,0.1,0.2,0.1c0,0,0,0,0,0c-0.1,0.5-0.1,1.2-0.1,2v0.7h2.3
	c0.1,0,0.1,0,0.2,0.1c0,0,0,0,0,0V6c0,0.2-0.2,0.2-0.5,0.2h-2v4.9c0,0.5,0,0.9,0.1,1.4c0,0.2,0.3,0.4,0.5,0.4c0.6,0,1.1-0.2,1.6-0.6
	c0.2,0,0.3,0.1,0.3,0.3c-0.6,0.8-1.6,1.3-2.6,1.3c-1,0-1.5-0.6-1.5-1.9V6.3h-1.1c-0.1,0-0.1,0-0.1-0.1c0,0,0,0,0,0V5.9
	C97.8,5.7,97.9,5.5,98.1,5.5C98.1,5.5,98.1,5.5,98.1,5.5z"/>
</svg>
