<?xml version="1.0" encoding="UTF-8" standalone="no"?>
<svg width="35px" height="35px" viewBox="0 0 35 35" version="1.1" xmlns="http://www.w3.org/2000/svg" xmlns:xlink="http://www.w3.org/1999/xlink" xmlns:sketch="http://www.bohemiancoding.com/sketch/ns">
    <!-- Generator: Sketch 3.5.1 (25234) - http://www.bohemiancoding.com/sketch -->
    <title>Imported Layers 2</title>
    <desc>Created with Sketch.</desc>
    <defs>
        <path id="path-1" d="M0.0583333333,34.9410833 L34.98775,34.9410833 L34.98775,0.0116666667 L0.0583333333,0.0116666667"></path>
    </defs>
    <g id="MVP-Design" stroke="none" stroke-width="1" fill="none" fill-rule="evenodd" sketch:type="MSPage">
        <g id="UF-Instructor-flow2-9-Copy-26" sketch:type="MSArtboardGroup" transform="translate(-18.000000, -9.000000)">
            <rect id="Rectangle-59" fill="#FFFFFF" sketch:type="MSShapeGroup" x="0" y="-1" width="679" height="55"></rect>
            <g id="Imported-Layers-2" sketch:type="MSLayerGroup" transform="translate(18.000000, 9.000000)">
                <mask id="mask-2" sketch:name="Clip 2" fill="white">
                    <use xlink:href="#path-1"></use>
                </mask>
                <g id="Clip-2"></g>
                <path d="M1.61466667,0.0145833333 C1.61466667,0.0145833333 0.06125,0.01575 0.06125,1.470875 L0.06125,33.4830417 C0.06125,33.4830417 0.06125,34.9381667 1.516375,34.9381667 L33.5297083,34.9381667 C33.5297083,34.9381667 34.9845417,34.9381667 34.9845417,33.4830417 L34.9845417,1.46970833 C34.9845417,1.46970833 34.9895,0.0145833333 33.534375,0.0145833333 L1.61466667,0.0145833333" id="Fill-1" fill="#FFFFFF" sketch:type="MSShapeGroup" mask="url(#mask-2)"></path>
                <path d="M23.261,22.9378333 C22.064,22.9378333 21.0720417,24.0875833 21.0720417,25.5047917 C21.0720417,26.6072917 21.67025,28.6390417 23.4815,28.6390417 C24.22175,28.6390417 24.88325,28.3240417 25.34,27.7412917 L25.34,25.5047917 C25.34,23.5835833 24.12725,22.9378333 23.261,22.9378333" id="Fill-3" fill="#1A1918" sketch:type="MSShapeGroup" mask="url(#mask-2)"></path>
                <path d="M33.9383333,28.4815417 C33.0248333,29.3320417 32.237625,29.6942917 31.308375,29.6942917 C30.142875,29.6942917 29.182125,29.1115417 29.182125,27.6310417 L29.182125,24.5443333 C29.182125,23.300375 28.898625,23.1740833 27.9224167,23.1740833 L27.9224167,22.607375 L30.505125,22.434125 L30.505125,26.8280833 C30.505125,28.0250833 30.993375,28.5760417 31.938375,28.5760417 C32.6310833,28.5760417 33.1823333,28.3555417 33.9383333,27.7570417 L33.9383333,24.5443333 C33.9383333,23.300375 33.6705833,23.1740833 32.584125,23.1740833 L32.584125,22.607375 L34.98775,22.451625 L34.98775,1.46708333 C34.98775,1.46708333 34.98775,0.0116666667 33.6134167,0.0116666667 L1.59454167,0.0116666667 C1.59454167,0.0116666667 0.0583333333,0.0116666667 0.0583333333,1.46708333 L0.0583333333,5.80358333 L1.859375,5.80358333 L1.859375,6.40208333 C0.804125,6.65408333 0.945875,7.45733333 1.323875,8.27604167 L2.58358333,10.9535417 C2.89858333,11.6307917 3.74908333,13.5835 4.19008333,14.749 L5.71783333,11.7095417 L4.01683333,7.97679167 C3.41833333,6.65408333 3.04033333,6.41783333 2.59933333,6.40208333 L2.59933333,5.80358333 L6.25333333,5.80358333 L6.25333333,6.40208333 C5.52883333,6.59108333 5.37133333,7.20533333 5.68633333,7.85108333 L6.67829167,9.85104167 L7.60754167,8.04008333 C7.89104167,7.48883333 7.92254167,6.60683333 7.02479167,6.40208333 L7.02479167,5.80358333 L9.89129167,5.80358333 L9.89129167,6.40208333 C9.26129167,6.57533333 9.00929167,6.92183333 8.42654167,8.00858333 L7.02479167,10.6227917 L8.39504167,13.3945 C8.58404167,13.78825 8.71004167,14.0875 8.86754167,14.497 L11.29275,8.92179167 C11.89125,7.56758333 11.781,6.55958333 10.647,6.40208333 L10.647,5.80358333 L13.8439583,5.80358333 L13.8439583,6.40208333 C13.27725,6.48083333 12.8835,6.92183333 12.45825,7.89804167 L9.26129167,15.2215 C9.07229167,15.64675 8.83604167,16.324 8.77304167,16.7332083 L8.03279167,16.7332083 C7.95404167,16.3555 7.82804167,16.0405 7.71779167,15.82 L6.06433333,12.4495 L4.88308333,14.749 C4.67833333,15.1585 4.11133333,16.261 4.06408333,16.7332083 L3.22933333,16.7332083 C3.16633333,16.324 2.83558333,15.52075 2.59933333,14.98525 L0.0583333333,9.32545833 L0.0583333333,33.4859583 C0.0583333333,33.4859583 0.0583333333,34.9410833 1.51375,34.9410833 L33.5323333,34.9410833 C33.5323333,34.9410833 34.98775,34.9410833 34.98775,33.4859583 L34.98775,29.5009167 L33.9383333,29.6942917 L33.9383333,28.4815417 L33.9383333,28.4815417 Z M28.5005,5.59883333 C28.9732917,5.59883333 29.3512917,5.97683333 29.3512917,6.44933333 C29.3512917,6.92183333 28.9732917,7.29983333 28.5005,7.29983333 C28.0282917,7.29983333 27.6502917,6.92183333 27.6502917,6.44933333 C27.6502917,5.97683333 28.0282917,5.59883333 28.5005,5.59883333 L28.5005,5.59883333 Z M26.7052917,10.0557917 L28.8315417,9.28404167 L29.2252917,9.28404167 L29.2252917,14.7175 C29.2252917,15.58375 29.6345,15.96175 30.2015,15.9775 L30.2015,16.5445 L26.7682917,16.5445 L26.7682917,15.9775 C27.3667917,15.9775 27.9022917,15.61525 27.9022917,14.82775 L27.9022917,11.0165417 L26.7052917,10.4180417 L26.7052917,10.0557917 L26.7052917,10.0557917 Z M21.578375,10.0242917 L21.578375,9.45729167 L25.4837917,9.45729167 L25.4837917,10.0242917 C24.8852917,10.0242917 24.1610833,10.4967917 23.3578333,11.1897917 L21.909125,12.4182917 L25.8145417,15.883 L25.8145417,16.5445 L24.6020833,16.5445 C24.2398333,16.30825 24.0035833,16.1347083 23.7515833,15.883 L20.6173333,12.8275 L22.1135833,11.4417917 C23.0113333,10.6227917 22.6963333,10.0242917 21.578375,10.0242917 L21.578375,10.0242917 Z M18.239375,15.9775 C18.664625,15.9775 19.247375,15.6307083 19.247375,14.82775 L19.247375,7.26833333 L18.239375,6.71708333 L18.239375,6.35483333 L20.176625,5.59883333 L20.570375,5.59883333 L20.570375,14.79625 C20.570375,15.505 20.9165833,15.9775 21.7198333,15.9775 L21.7198333,16.5445 L18.239375,16.5445 L18.239375,15.9775 L18.239375,15.9775 Z M15.434125,5.59883333 C15.906625,5.59883333 16.284625,5.97683333 16.284625,6.44933333 C16.284625,6.92183333 15.906625,7.29983333 15.434125,7.29983333 C14.961625,7.29983333 14.583625,6.92183333 14.583625,6.44933333 C14.583625,5.97683333 14.961625,5.59883333 15.434125,5.59883333 L15.434125,5.59883333 Z M13.6389167,10.0557917 L15.764875,9.28404167 L16.158625,9.28404167 L16.158625,14.7175 C16.158625,15.58375 16.568125,15.96175 17.135125,15.9775 L17.135125,16.5445 L13.7019167,16.5445 L13.7019167,15.9775 C14.300125,15.9775 14.835625,15.61525 14.835625,14.82775 L14.835625,11.0165417 L13.6389167,10.4180417 L13.6389167,10.0557917 L13.6389167,10.0557917 Z M18.1119167,29.5210417 L8.86725,29.5210417 L8.86725,28.9225417 C10.0639583,28.9225417 10.5525,28.4657917 10.5525,27.3163333 L10.5525,20.985125 C10.5525,19.945625 10.1427083,19.378625 8.86725,19.378625 L8.86725,18.7804167 L17.969875,18.7804167 L17.969875,21.174125 L17.4031667,21.174125 C16.8361667,19.756625 16.0329167,19.457375 14.7256667,19.457375 L12.2059583,19.457375 L12.2059583,23.5835833 L14.3161667,23.5835833 C15.7966667,23.5835833 16.3479167,23.190125 16.4266667,22.071875 L17.0724167,22.071875 L17.0724167,25.8673333 L16.4266667,25.8673333 C16.2376667,24.6703333 15.7021667,24.2608333 14.3476667,24.2608333 L12.2059583,24.2608333 L12.2059583,26.8595833 C12.2059583,28.3712917 12.6312083,28.8437917 14.0484167,28.8437917 L14.8359167,28.8437917 C16.5841667,28.8437917 17.3716667,28.3712917 18.1119167,26.8910833 L18.820375,26.8910833 L18.1119167,29.5210417 L18.1119167,29.5210417 Z M27.7967083,29.2532917 L25.7334583,29.6942917 L25.3397083,29.6942917 L25.3397083,28.5130417 C24.5207083,29.2847917 23.59175,29.6942917 22.70975,29.6942917 C21.0562917,29.6942917 19.7490417,28.1980417 19.7490417,26.3240833 C19.7490417,24.1033333 21.497,22.260875 23.59175,22.260875 C24.08,22.260875 24.6155,22.355375 25.3397083,22.560125 L25.3397083,20.181875 L24.19025,19.5521667 L24.19025,19.1899167 L26.2689583,18.5756667 L26.6627083,18.5756667 L26.6627083,27.8987917 C26.6627083,28.5917917 27.0092083,28.8595417 27.7967083,28.6232917 L27.7967083,29.2532917 L27.7967083,29.2532917 Z" id="Fill-4" fill="#161414" sketch:type="MSShapeGroup" mask="url(#mask-2)"></path>
            </g>
        </g>
    </g>
</svg>