<?xml version="1.0" encoding="utf-8"?>
<!-- Generator: Adobe Illustrator 19.2.0, SVG Export Plug-In . SVG Version: 6.00 Build 0)  -->
<!DOCTYPE svg PUBLIC "-//W3C//DTD SVG 1.1//EN" "http://www.w3.org/Graphics/SVG/1.1/DTD/svg11.dtd">
<svg version="1.1" id="Layer_1" xmlns="http://www.w3.org/2000/svg" xmlns:xlink="http://www.w3.org/1999/xlink" x="0px" y="0px"
	 viewBox="0 0 24 24" style="enable-background:new 0 0 24 24;" xml:space="preserve">
<g>
	<path d="M19.6,2h-16c-1.1,0-2,0.8-2,1.9l0,15.9c0,1.1,0.9,2.2,2,2.2h16c1.1,0,2.4-1.2,2.4-2.3v-16C22,2.6,20.7,2,19.6,2z M20.4,6.9
		c-0.8,0-1.2,0.4-1.5,1.1c-0.7,1.5-2.8,6.4-4.2,9.6c0,0-0.4,0-0.4,0l-2.2-5.2c-0.9,1.7-1.8,3.5-2.7,5.2c0,0-0.4,0-0.4,0
		c-1.3-2.9-2.6-5.9-3.8-8.8C5,8.1,4,6.9,3.3,6.9c0-0.1,0-0.3,0-0.4l4.3,0l0,0.4C7.1,7,6.2,7.3,6.4,7.8c0.6,1.3,2.8,6.4,3.4,7.7
		c0.4-0.8,1.5-2.9,2-3.8c-0.4-0.8-1.6-3.6-1.9-4.3C9.6,7,8.9,6.9,8.4,6.9c0-0.1-0.1-0.2-0.1-0.4l3.7,0v0.3c0,0-0.9,0.2-0.7,0.7
		c0.5,1.1,0.9,1.8,1.3,2.8c0.2-0.3,0.9-1.9,1.3-2.7c0.2-0.6-0.1-0.8-1-0.8c0-0.1,0-0.3,0-0.4c1.2,0,3,0,3.3,0l0,0.4
		c-0.6,0-1.2,0.3-1.6,0.8l-1.6,3.3c0.2,0.4,1.7,3.8,1.9,4.2l3.3-7.6c-0.2-0.6-1-0.7-1.3-0.8c0-0.1,0-0.2,0-0.4l3.4,0l0,0L20.4,6.9z"
		/>
</g>
</svg>
