<svg id="Layer_1" data-name="Layer 1" xmlns="http://www.w3.org/2000/svg" viewBox="0 0 151.35 18.64" width='150px' height='18px'><defs><style>.cls-1{fill:#231f20;}</style></defs><title>Wikipedia Playlist</title>
<path class="cls-1" d="M17.92,4.47A1,1,0,0,0,18,4.15a0.69,0.69,0,0,0,0-.24,0.34,0.34,0,0,0-.16-0.17l-0.22-.11a1.4,1.4,0,0,0-.29-0.07L17,3.52l-0.35,0a0.47,0.47,0,0,1-.08-0.32,0.56,0.56,0,0,1,.08-0.34l2.2,0,1.74,0a0.47,0.47,0,0,1,.1.34,0.43,0.43,0,0,1-.1.33,1.93,1.93,0,0,0-1.13.34,2.06,2.06,0,0,0-.59.87l-4,10.78a0.6,0.6,0,0,1-.45.52,0.61,0.61,0,0,1-.46-0.54L11.58,8.82a1,1,0,0,0-.28-0.56,0.83,0.83,0,0,0-.34.5l-3,6.7a0.75,0.75,0,0,1-.52.55A0.61,0.61,0,0,1,7,15.47L3.26,4.65A2.13,2.13,0,0,0,2.77,3.7a1.94,1.94,0,0,0-.93-0.21,0.47,0.47,0,0,1-.08-0.32,0.56,0.56,0,0,1,.08-0.34l1.87,0q1,0,2.31,0a0.48,0.48,0,0,1,.1.34,0.39,0.39,0,0,1-.1.33,2.13,2.13,0,0,0-.88.2A0.5,0.5,0,0,0,5,4.33l2.92,8.84,0.09,0,2.59-5.86a2,2,0,0,0,.19-0.7A2.34,2.34,0,0,0,10.66,6L10.2,4.68A1.72,1.72,0,0,0,8.52,3.49a0.47,0.47,0,0,1-.08-0.32,0.56,0.56,0,0,1,.08-0.34l2,0,2.5,0a0.47,0.47,0,0,1,.1.34,0.43,0.43,0,0,1-.1.33l-0.41,0a2,2,0,0,0-.35.1,0.39,0.39,0,0,0-.26.19l-0.11.33a0.68,0.68,0,0,0,.09.53l2.74,8.45,0.07,0Z" transform="translate(-1.76 -1.8)"/><path class="cls-1" d="M24.16,13.33a2.74,2.74,0,0,0,.24,1.48,1.86,1.86,0,0,0,1.2.35,0.47,0.47,0,0,1,.1.34,0.4,0.4,0,0,1-.1.32q-1.32,0-2.22,0t-2.25,0a0.46,0.46,0,0,1-.08-0.32,0.55,0.55,0,0,1,.08-0.34,1.94,1.94,0,0,0,1.2-.35,2.66,2.66,0,0,0,.24-1.47V9.43a1.59,1.59,0,0,0-.23-1.06,2,2,0,0,0-1.07-.3,0.87,0.87,0,0,1,0-.57A13.25,13.25,0,0,0,24,6.93q0.26,0,.26.14-0.08,1.28-.08,2.28v4ZM22.33,3.79a0.87,0.87,0,0,1,.34-0.66,1.07,1.07,0,0,1,.7-0.3,0.86,0.86,0,0,1,.67.33,1.06,1.06,0,0,1,.29.7,0.92,0.92,0,0,1-.32.65,1,1,0,0,1-.72.31,0.89,0.89,0,0,1-.66-0.33A1,1,0,0,1,22.33,3.79Z" transform="translate(-1.76 -1.8)"/><path class="cls-1" d="M27.87,13.33V4.59q0-.64,0-1a0.6,0.6,0,0,0-.25-0.47A0.8,0.8,0,0,0,27.25,3l-0.66,0a0.56,0.56,0,0,1-.12-0.6,9.68,9.68,0,0,0,2.79-.55,0.21,0.21,0,0,1,.26.21q-0.08.8-.08,2.1v7a3,3,0,0,0,1.36-.62,9.16,9.16,0,0,0,1.6-1.64,1.22,1.22,0,0,0,.16-0.25,1.4,1.4,0,0,0,.1-0.31A0.29,0.29,0,0,0,32.54,8,1.1,1.1,0,0,0,32,7.81a0.46,0.46,0,0,1-.08-0.32A0.6,0.6,0,0,1,32,7.15q0.92,0,2,0,0.82,0,1.74,0a0.48,0.48,0,0,1,.1.34,0.41,0.41,0,0,1-.1.32,3.22,3.22,0,0,0-2.1.88L31.8,10.5a0.31,0.31,0,0,0-.09.21,0.55,0.55,0,0,0,.15.28L34.5,14.3a1.88,1.88,0,0,0,.73.61,4.25,4.25,0,0,0,1,.24,0.47,0.47,0,0,1,.1.34,0.4,0.4,0,0,1-.1.32q-0.8,0-1.64,0l-1.24,0a0.08,0.08,0,0,1-.08-0.1,4.62,4.62,0,0,0-.84-1.41l-1.46-2a3,3,0,0,0-.64-0.65,3.37,3.37,0,0,0-.86-0.11v1.74a3.35,3.35,0,0,0,.19,1.47,1.11,1.11,0,0,0,.84.36,0.49,0.49,0,0,1,.1.34,0.36,0.36,0,0,1-.1.32q-0.92,0-1.82,0l-2.14,0a0.4,0.4,0,0,1-.1-0.32,0.47,0.47,0,0,1,.1-0.34,1.62,1.62,0,0,0,1.11-.34A2.87,2.87,0,0,0,27.87,13.33Z" transform="translate(-1.76 -1.8)"/><path class="cls-1" d="M40.21,13.33a2.74,2.74,0,0,0,.24,1.48,1.86,1.86,0,0,0,1.2.35,0.47,0.47,0,0,1,.1.34,0.4,0.4,0,0,1-.1.32q-1.32,0-2.22,0t-2.25,0a0.46,0.46,0,0,1-.08-0.32,0.55,0.55,0,0,1,.08-0.34,1.94,1.94,0,0,0,1.2-.35,2.66,2.66,0,0,0,.24-1.47V9.43a1.59,1.59,0,0,0-.23-1.06,2,2,0,0,0-1.07-.3,0.87,0.87,0,0,1,0-.57A13.25,13.25,0,0,0,40,6.93q0.26,0,.26.14-0.08,1.28-.08,2.28v4ZM38.39,3.79a0.87,0.87,0,0,1,.34-0.66,1.07,1.07,0,0,1,.7-0.3,0.86,0.86,0,0,1,.67.33,1.06,1.06,0,0,1,.29.7,0.92,0.92,0,0,1-.32.65,1,1,0,0,1-.72.31,0.89,0.89,0,0,1-.66-0.33A1,1,0,0,1,38.39,3.79Z" transform="translate(-1.76 -1.8)"/><path class="cls-1" d="M45.32,8.4q0,0.3.22,0.09A3.75,3.75,0,0,1,48.29,7a3.15,3.15,0,0,1,2.52,1.22,4.34,4.34,0,0,1,1,2.86,5,5,0,0,1-1.47,3.78A4.08,4.08,0,0,1,47.4,16a4.67,4.67,0,0,1-1.74-.3,0.35,0.35,0,0,0-.21-0.06,0.22,0.22,0,0,0-.06.21V18a2.51,2.51,0,0,0,.27,1.49,2.27,2.27,0,0,0,1.37.34,0.47,0.47,0,0,1,.1.34,0.4,0.4,0,0,1-.1.32q-1.32,0-2.42,0c-0.56,0-1.31,0-2.25,0a0.46,0.46,0,0,1-.08-0.32,0.55,0.55,0,0,1,.08-0.34,1.75,1.75,0,0,0,1.19-.33,2.69,2.69,0,0,0,.25-1.5V9.43a1.59,1.59,0,0,0-.23-1.06,2,2,0,0,0-1.07-.3,0.87,0.87,0,0,1,0-.57,10.73,10.73,0,0,0,2.46-.58,0.25,0.25,0,0,1,.23.16A5.75,5.75,0,0,1,45.32,8.4Zm0.38,0.74a1.33,1.33,0,0,0-.31.88v3.64a2.11,2.11,0,0,0,.08.72,1.55,1.55,0,0,0,.4.48,2.07,2.07,0,0,0,1.42.42A2.74,2.74,0,0,0,48.67,15a2.2,2.2,0,0,0,.88-0.9A4.62,4.62,0,0,0,50,12.89a6,6,0,0,0,.13-1.28,4.72,4.72,0,0,0-.69-2.67,2,2,0,0,0-1.69-1,2.05,2.05,0,0,0-1,.37A3.9,3.9,0,0,0,45.71,9.15Z" transform="translate(-1.76 -1.8)"/><path class="cls-1" d="M60.64,13.91a0.41,0.41,0,0,1,.42.31A4.12,4.12,0,0,1,57.65,16a3.77,3.77,0,0,1-3.06-1.28,4.37,4.37,0,0,1-.94-3,4.65,4.65,0,0,1,1.27-3.41A3.79,3.79,0,0,1,57.65,7Q61,7,61,10.5a0.32,0.32,0,0,1-.37.34l-5.32,0A5.3,5.3,0,0,0,56,13.55,2.55,2.55,0,0,0,58.16,15a3.36,3.36,0,0,0,1.37-.24A3.72,3.72,0,0,0,60.64,13.91ZM55.4,10.12L59,10.07a0.25,0.25,0,0,0,.29-0.27,2.21,2.21,0,0,0-.49-1.62,1.62,1.62,0,0,0-1.17-.48,2,2,0,0,0-.52.07,2.64,2.64,0,0,0-.62.29,2,2,0,0,0-.67.76A4.13,4.13,0,0,0,55.4,10.12Z" transform="translate(-1.76 -1.8)"/><path class="cls-1" d="M68.87,14.76a4.29,4.29,0,0,1-2.5,1.2,3,3,0,0,1-2.49-1.18A4.9,4.9,0,0,1,63,11.71a4.76,4.76,0,0,1,1.38-3.52,4.2,4.2,0,0,1,3-1.2,2.83,2.83,0,0,1,.66.09l0.62,0.17,0.28,0.08a0.17,0.17,0,0,0,.19-0.19V4.59q0-.64,0-1a0.62,0.62,0,0,0-.25-0.47A0.81,0.81,0,0,0,68.47,3l-0.66,0a0.56,0.56,0,0,1-.12-0.6,9.8,9.8,0,0,0,2.8-.55,0.21,0.21,0,0,1,.26.21q-0.08.8-.09,2.1v9.06a1.61,1.61,0,0,0,.27,1.08,1.89,1.89,0,0,0,1.19.38,0.38,0.38,0,0,1,.1.28,0.34,0.34,0,0,1-.1.27,4.55,4.55,0,0,0-2.36.79,0.48,0.48,0,0,1-.38,0,7.6,7.6,0,0,1-.21-1.17,0.11,0.11,0,0,0-.12-0.1A0.27,0.27,0,0,0,68.87,14.76Zm0.22-1.47V9.49A2.29,2.29,0,0,0,69,8.84a1.35,1.35,0,0,0-.28-0.43,2,2,0,0,0-1.62-.71,2.12,2.12,0,0,0-1.87,1,4.72,4.72,0,0,0-.58,2.66,4.78,4.78,0,0,0,.66,2.72,1.87,1.87,0,0,0,1.54,1,3.16,3.16,0,0,0,1.88-1A1,1,0,0,0,69.1,13.29Z" transform="translate(-1.76 -1.8)"/><path class="cls-1" d="M76.13,13.33a2.74,2.74,0,0,0,.24,1.48,1.86,1.86,0,0,0,1.2.35,0.47,0.47,0,0,1,.1.34,0.4,0.4,0,0,1-.1.32q-1.32,0-2.22,0t-2.25,0A0.46,0.46,0,0,1,73,15.49a0.55,0.55,0,0,1,.08-0.34,1.94,1.94,0,0,0,1.2-.35,2.66,2.66,0,0,0,.24-1.47V9.43a1.59,1.59,0,0,0-.23-1.06,2,2,0,0,0-1.07-.3,0.87,0.87,0,0,1,0-.57,13.25,13.25,0,0,0,2.73-.58q0.26,0,.26.14-0.08,1.28-.08,2.28v4ZM74.31,3.79a0.87,0.87,0,0,1,.34-0.66,1.07,1.07,0,0,1,.7-0.3,0.86,0.86,0,0,1,.67.33,1.06,1.06,0,0,1,.29.7,0.92,0.92,0,0,1-.32.65,1,1,0,0,1-.72.31,0.89,0.89,0,0,1-.66-0.33A1,1,0,0,1,74.31,3.79Z" transform="translate(-1.76 -1.8)"/><path class="cls-1" d="M84,14.81h0l-0.4.31a3.54,3.54,0,0,1-2.18.84q-2.52,0-2.52-2.16A2.25,2.25,0,0,1,79.76,12a6,6,0,0,1,2.39-1.14l1.72-.42A0.21,0.21,0,0,0,84,10.25q0-2.6-1.62-2.6a2.76,2.76,0,0,0-1.13.21,0.68,0.68,0,0,0-.47.63,1.32,1.32,0,0,0,0,.39,0.93,0.93,0,0,1,.07.36,0.62,0.62,0,0,1-.27.45,1,1,0,0,1-.67.23,0.62,0.62,0,0,1-.69-0.72,1.9,1.9,0,0,1,1-1.53A4,4,0,0,1,82.53,7q3,0,3,3.38v2.94q0,0.42,0,.66a3.27,3.27,0,0,0,.07.52,0.72,0.72,0,0,0,.19.4,0.48,0.48,0,0,0,.33.12,1.16,1.16,0,0,0,.74-0.32,0.7,0.7,0,0,1,.34.55,2.58,2.58,0,0,1-1.9.73,1.28,1.28,0,0,1-1-.3A1.64,1.64,0,0,1,84,14.81Zm0-3.7-1.58.42a2.14,2.14,0,0,0-1.89,2.2,1.51,1.51,0,0,0,.37,1,1.3,1.3,0,0,0,1.07.44,3.11,3.11,0,0,0,1.76-.89A0.65,0.65,0,0,0,84,13.75V11.11Z" transform="translate(-1.76 -1.8)"/><path class="cls-1" d="M94.74,5.31a2.27,2.27,0,0,0-.31-1.49A2.44,2.44,0,0,0,93,3.49a0.4,0.4,0,0,1-.1-0.32A0.47,0.47,0,0,1,93,2.83l2.58,0Q96,2.87,97,2.8t1.36-.07a6.63,6.63,0,0,1,2.24.34A3.16,3.16,0,0,1,102,4,3.76,3.76,0,0,1,102.61,5a2.93,2.93,0,0,1,.19,1,4.05,4.05,0,0,1-.24,1.37,4.46,4.46,0,0,1-.75,1.3,3.52,3.52,0,0,1-1.48,1,6.13,6.13,0,0,1-2.27.39,5.56,5.56,0,0,1-1.62-.2v3.4a1.9,1.9,0,0,0,.38,1.47,3.4,3.4,0,0,0,1.66.36,0.47,0.47,0,0,1,.1.34,0.39,0.39,0,0,1-.1.32l-2.88,0-2.6,0a0.39,0.39,0,0,1-.1-0.32,0.47,0.47,0,0,1,.1-0.34,2.4,2.4,0,0,0,1.43-.33,2.3,2.3,0,0,0,.31-1.49v-8Zm1.7-.62V9.35a7.35,7.35,0,0,0,1.52.1,3.07,3.07,0,0,0,2.23-.73,3.11,3.11,0,0,0,.75-2.3A3,3,0,0,0,100.18,4a3,3,0,0,0-2-.63Q96.44,3.4,96.44,4.68Z" transform="translate(-1.76 -1.8)"/><path class="cls-1" d="M105.42,13.33V4.59a2.62,2.62,0,0,0-.2-1.34,1.71,1.71,0,0,0-1.09-.3,0.56,0.56,0,0,1-.12-0.6,9.81,9.81,0,0,0,2.8-.55,0.21,0.21,0,0,1,.26.21q-0.08.8-.09,2.1v9.22a2.66,2.66,0,0,0,.25,1.49,1.79,1.79,0,0,0,1.19.34,0.55,0.55,0,0,1,.08.34,0.46,0.46,0,0,1-.08.32q-1.32,0-2.23,0l-2.24,0a0.39,0.39,0,0,1-.1-0.32,0.47,0.47,0,0,1,.1-0.34,1.74,1.74,0,0,0,1.19-.33A2.69,2.69,0,0,0,105.42,13.33Z" transform="translate(-1.76 -1.8)"/><path class="cls-1" d="M114.84,14.81h0l-0.4.31a3.54,3.54,0,0,1-2.18.84q-2.52,0-2.52-2.16a2.25,2.25,0,0,1,.91-1.76A6,6,0,0,1,113,10.9l1.72-.42a0.21,0.21,0,0,0,.12-0.23q0-2.6-1.62-2.6a2.76,2.76,0,0,0-1.13.21,0.68,0.68,0,0,0-.47.63,1.3,1.3,0,0,0,0,.39,0.94,0.94,0,0,1,.07.36,0.62,0.62,0,0,1-.27.45,1,1,0,0,1-.67.23,0.62,0.62,0,0,1-.69-0.72,1.9,1.9,0,0,1,1-1.53A4,4,0,0,1,113.39,7q3,0,3,3.38v2.94q0,0.42,0,.66a3.27,3.27,0,0,0,.07.52,0.72,0.72,0,0,0,.19.4A0.48,0.48,0,0,0,117,15a1.16,1.16,0,0,0,.74-0.32,0.7,0.7,0,0,1,.34.55,2.58,2.58,0,0,1-1.9.73,1.28,1.28,0,0,1-1-.3A1.64,1.64,0,0,1,114.84,14.81Zm0-3.7-1.58.42a2.14,2.14,0,0,0-1.89,2.2,1.51,1.51,0,0,0,.37,1,1.3,1.3,0,0,0,1.07.44,3.11,3.11,0,0,0,1.76-.89,0.65,0.65,0,0,0,.28-0.52V11.11Z" transform="translate(-1.76 -1.8)"/><path class="cls-1" d="M122,19a2.32,2.32,0,0,1-1.94,1.44,1,1,0,0,1-.67-0.21,0.65,0.65,0,0,1-.27-0.53,0.9,0.9,0,0,1,.25-0.56,0.79,0.79,0,0,1,.63-0.3l0.27,0,0.31,0a1.07,1.07,0,0,0,1-.58,17.08,17.08,0,0,0,.78-1.84,2.66,2.66,0,0,0-.28-1.88L119.81,9.3a3.64,3.64,0,0,0-.67-1.15,1.63,1.63,0,0,0-.9-0.34,0.46,0.46,0,0,1-.08-0.32,0.6,0.6,0,0,1,.08-0.35q0.8,0,1.62,0l2.26,0a0.56,0.56,0,0,1,.08.34,0.47,0.47,0,0,1-.08.32,0.93,0.93,0,0,0-.88.37,1.32,1.32,0,0,0,.23.93l1.78,4.16q0.24,0.57.48,0l2-4.58A0.46,0.46,0,0,0,125.63,8a2.16,2.16,0,0,0-.9-0.24,0.4,0.4,0,0,1-.1-0.32,0.51,0.51,0,0,1,.1-0.35l1.82,0q0.62,0,1.42,0a0.47,0.47,0,0,1,.1.34,0.4,0.4,0,0,1-.1.32,1.82,1.82,0,0,0-1,.35,3,3,0,0,0-.63.93q-1.46,3.16-3.54,8.16A18.3,18.3,0,0,1,122,19Z" transform="translate(-1.76 -1.8)"/><path class="cls-1" d="M129.91,13.33V4.59a2.62,2.62,0,0,0-.2-1.34,1.71,1.71,0,0,0-1.09-.3,0.56,0.56,0,0,1-.12-0.6,9.81,9.81,0,0,0,2.8-.55,0.21,0.21,0,0,1,.26.21q-0.08.8-.09,2.1v9.22a2.66,2.66,0,0,0,.25,1.49,1.79,1.79,0,0,0,1.19.34,0.55,0.55,0,0,1,.08.34,0.46,0.46,0,0,1-.08.32q-1.32,0-2.23,0l-2.24,0a0.39,0.39,0,0,1-.1-0.32,0.47,0.47,0,0,1,.1-0.34,1.74,1.74,0,0,0,1.19-.33A2.69,2.69,0,0,0,129.91,13.33Z" transform="translate(-1.76 -1.8)"/><path class="cls-1" d="M137.11,13.33a2.74,2.74,0,0,0,.24,1.48,1.86,1.86,0,0,0,1.2.35,0.47,0.47,0,0,1,.1.34,0.39,0.39,0,0,1-.1.32q-1.32,0-2.22,0t-2.25,0a0.46,0.46,0,0,1-.08-0.32,0.55,0.55,0,0,1,.08-0.34,1.94,1.94,0,0,0,1.2-.35,2.66,2.66,0,0,0,.24-1.47V9.43a1.59,1.59,0,0,0-.23-1.06,2,2,0,0,0-1.07-.3,0.88,0.88,0,0,1,0-.57,13.24,13.24,0,0,0,2.73-.58q0.26,0,.26.14-0.08,1.28-.08,2.28v4Zm-1.83-9.54a0.87,0.87,0,0,1,.34-0.66,1.06,1.06,0,0,1,.7-0.3,0.87,0.87,0,0,1,.67.33,1.06,1.06,0,0,1,.29.7,0.92,0.92,0,0,1-.32.65,1,1,0,0,1-.72.31,0.89,0.89,0,0,1-.66-0.33A1,1,0,0,1,135.28,3.79Z" transform="translate(-1.76 -1.8)"/><path class="cls-1" d="M140.06,13a0.43,0.43,0,0,1,.31-0.1,0.5,0.5,0,0,1,.31.08,4.19,4.19,0,0,0,.78,1.84,1.87,1.87,0,0,0,1.42.48,2,2,0,0,0,1.17-.36,1.18,1.18,0,0,0,.53-1,1.42,1.42,0,0,0-.41-1.06,5.49,5.49,0,0,0-1.63-.9,4.5,4.5,0,0,1-1.7-1.08,2.45,2.45,0,0,1-.5-1.65,2,2,0,0,1,.84-1.59,3.14,3.14,0,0,1,2-.65,6.66,6.66,0,0,1,.94.07q0.48,0.07,1,.18l0.67,0.13q0,1.06-.12,2.12a0.45,0.45,0,0,1-.32.1A0.52,0.52,0,0,1,145,9.51a3,3,0,0,0-.33-1,1.44,1.44,0,0,0-.54-0.57,2.42,2.42,0,0,0-.54-0.23,1.79,1.79,0,0,0-.44-0.06,1.52,1.52,0,0,0-1,.35,1.13,1.13,0,0,0-.43.93,1.29,1.29,0,0,0,.45,1.1,6.45,6.45,0,0,0,1.55.76q2.34,0.87,2.34,2.66a2.23,2.23,0,0,1-.33,1.23,2.2,2.2,0,0,1-.85.79,4.3,4.3,0,0,1-2,.5,7.29,7.29,0,0,1-1.82-.21,1.58,1.58,0,0,0-.4,0,2.73,2.73,0,0,0-.5.06Q140.2,14.72,140.06,13Z" transform="translate(-1.76 -1.8)"/><path class="cls-1" d="M148,7.18h0.92q0-.76,0-1.26c0-.33,0-0.55,0-0.65s0-.18,0-0.25a1.54,1.54,0,0,1,0-.16,0.51,0.51,0,0,1,.44-0.27,3.1,3.1,0,0,0,.68-0.28,1.61,1.61,0,0,1,.44-0.19,0.15,0.15,0,0,1,.16.18q-0.08.8-.08,2.11V7.18h2.4a0.13,0.13,0,0,1,.16.13v0.4q0,0.26-.48.25h-2.08V13a5,5,0,0,0,.14,1.41,0.53,0.53,0,0,0,.52.43,2.59,2.59,0,0,0,1.64-.57,0.35,0.35,0,0,1,.35.34,3.54,3.54,0,0,1-2.7,1.32q-1.54,0-1.54-2V8h-1.18a0.1,0.1,0,0,1-.1-0.12V7.58A0.34,0.34,0,0,1,148,7.18Z" transform="translate(-1.76 -1.8)"/></svg>